<svg xmlns="http://www.w3.org/2000/svg" version="1.1" xmlns:xlink="http://www.w3.org/1999/xlink" xmlns:svgjs="http://svgjs.com/svgjs" width="1443" height="712" preserveAspectRatio="none" viewBox="0 0 1443 712"><g mask="url(&quot;#SvgjsMask1181&quot;)" fill="none"><path d="M855.7652931825709 427.7334362071605L756.3336099615982 389.5651890755947 748.7970808747358 557.7968374728366z" fill="rgba(0, 63, 99, 0.28)" class="triangle-float2"></path><path d="M356.8114580385502 691.0297392093723L545.019773703008 755.8350593433829 609.8250938370186 567.6267436789251 421.61677817256077 502.8214235449145z" fill="rgba(0, 63, 99, 0.28)" class="triangle-float1"></path><path d="M778.6542396192747 694.9687156416782L950.2234721682146 587.7603604912414 671.4458844688379 523.3994830927384z" fill="rgba(0, 63, 99, 0.28)" class="triangle-float2"></path><path d="M804.7342863036345 762.7999880315515L987.2306926346814 669.8134245646067 711.7477228366897 580.3035817005045z" fill="rgba(0, 63, 99, 0.28)" class="triangle-float1"></path><path d="M435.13731376655505 134.7301104232203L609.898278108186 84.61821028749813 559.7863779724638-90.14275405413278 385.0254136308329-40.0308539184106z" fill="rgba(0, 63, 99, 0.28)" class="triangle-float2"></path><path d="M1105.85 453.7 a130.1 130.1 0 1 0 260.2 0 a130.1 130.1 0 1 0 -260.2 0z" fill="rgba(0, 63, 99, 0.28)" class="triangle-float3"></path><path d="M235.804,380.941C260.883,379.458,282.678,366.484,296.571,345.552C312.433,321.652,325.204,291.96,311.635,266.687C297.568,240.487,265.54,232.605,235.804,232.369C205.551,232.129,173.722,239.704,157.857,265.465C141.341,292.282,143.545,327.455,161.166,353.56C177.057,377.102,207.451,382.618,235.804,380.941" fill="rgba(0, 63, 99, 0.28)" class="triangle-float3"></path><path d="M1533.217895526238 142.3382663731117L1505.2031969131315 10.539471769926365 1321.5123543149068 118.46091699117883z" fill="rgba(0, 63, 99, 0.28)" class="triangle-float1"></path><path d="M966.763,269.748C1027.522,273.538,1088.374,242.924,1116.888,189.138C1143.997,138.001,1126.965,76.636,1094.56,28.68C1066.173,-13.329,1017.454,-34.04,966.763,-33.028C917.967,-32.054,872.269,-8.447,847.508,33.611C822.38,76.291,823.59,128.024,845.917,172.234C870.926,221.754,911.394,266.294,966.763,269.748" fill="rgba(0, 63, 99, 0.28)" class="triangle-float2"></path><path d="M1127.0009331861381 472.98942670911924L1085.7944450536324 359.77553103003504 936.5768456012589 478.19221106833567z" fill="rgba(0, 63, 99, 0.28)" class="triangle-float3"></path><path d="M242.52143926095926 325.5748029991838L382.5088761427129 363.08432366215254 420.0183968056816 223.09688678039888 280.030959923928 185.58736611743018z" fill="rgba(0, 63, 99, 0.28)" class="triangle-float1"></path><path d="M624.802,171.316C664.584,173.611,704.344,151.467,721.315,115.413C736.588,82.966,717.742,47.256,696.952,18.035C680.036,-5.74,653.981,-20.228,624.802,-20.239C595.602,-20.25,568.106,-6.735,552.556,17.98C535.896,44.46,532.489,76.988,545.823,105.289C561.498,138.559,588.085,169.198,624.802,171.316" fill="rgba(0, 63, 99, 0.28)" class="triangle-float1"></path><path d="M382.47841727387095 659.5976524025946L502.271286826019 606.2624305825548 448.9360650059791 486.46956103040674 329.14319545383114 539.8047828504466z" fill="rgba(0, 63, 99, 0.28)" class="triangle-float1"></path></g><defs><mask id="SvgjsMask1181"><rect width="1443" height="712" fill="#ffffff"></rect></mask><style>
            @keyframes float1 {
                0%{transform: translate(0, 0)}
                50%{transform: translate(-10px, 0)}
                100%{transform: translate(0, 0)}
            }

            .triangle-float1 {
                animation: float1 5s infinite;
            }

            @keyframes float2 {
                0%{transform: translate(0, 0)}
                50%{transform: translate(-5px, -5px)}
                100%{transform: translate(0, 0)}
            }

            .triangle-float2 {
                animation: float2 4s infinite;
            }

            @keyframes float3 {
                0%{transform: translate(0, 0)}
                50%{transform: translate(0, -10px)}
                100%{transform: translate(0, 0)}
            }

            .triangle-float3 {
                animation: float3 6s infinite;
            }
        </style></defs></svg>