<?xml version="1.0" encoding="utf-8"?>
<!-- Generator: Adobe Illustrator 25.4.1, SVG Export Plug-In . SVG Version: 6.00 Build 0)  -->
<svg version="1.1" xmlns="http://www.w3.org/2000/svg" xmlns:xlink="http://www.w3.org/1999/xlink" x="0px" y="0px"
	 viewBox="0 0 481.1 393.1" style="enable-background:new 0 0 481.1 393.1;" xml:space="preserve">
<style type="text/css">
	.st0{fill:#F2B138;}
	.st1{fill:#003F63;}
	.st2{fill:#FFFFFF;}
</style>
<g id="Capa_1">
	<g>
		<path class="st1" d="M410.7,258.2l-2.3,5.6c-3.9,9.5-8.5,18.5-13.9,27.1c-7,11-25.4,31.5-25.8,31.9l0.1-283
			c-7.7-6.1-15.9-11.6-24.5-16.4v347.7c40.4-23,72-59.8,88.5-103.9l2.9-9H410.7z"/>
		<path class="st1" d="M114.5,205.5c1.5,0,13.3,0.6,15.1,0.6c17.8,0,26.7-8.1,26.7-24.2V54.8c0-6.8-1.7-12.4-5.2-16.8c0,0,0,0,0,0
			c-3.5-4.4-7.5-5.1-10.7-5.2c-1.5,0-4.9,0-5.4,0c-2.7,0-4.8,1-5.5,1.5c-0.6,0.4-1.2,0.9-1.8,1.3c-49.9,36.4-82.3,95.2-82.3,161.7
			c0,20.6,3.1,40.4,8.9,59.1c1.1,3.7,7.1,19.9,7.1,19.9h26.1c0,0-8-20-9.3-23.9c-5.8-17.7-8.8-36.2-8.8-55.1
			c0-47,18.3-91.2,51.5-124.5c3.5-3.5,7.2-6.9,11-10.1v118H88.4l-3.3,6l50.3,177.5c9.5,6.3,19.6,11.8,30.1,16.4
			C165.4,380.6,129.9,257.5,114.5,205.5z"/>
		<path class="st1" d="M303.9,178.2c0.8-1.8,1.1-4.7,1.1-8.6V29.8c0-5.8,4-8.7,12.1-8.7c1.2,0,2.8,0.1,5,0.2
			c2.2,0.1,3.6,0.2,4.5,0.2v-7.1c-11-4.9-22.5-8.8-34.4-11.7c-7.5,3.8-11.3,11.5-11.3,23V172l-20.5,20v3.9l20.5,20.1v152.7
			c0,11.6,3.8,19.2,11.3,23c11.9-2.9,23.4-6.8,34.4-11.7v-7.1c-0.8,0-2.3,0.1-4.4,0.2c-2.1,0.1-3.7,0.2-4.8,0.2
			c-8.3,0-12.4-3-12.4-9.1v-146c0-3.7-0.3-6.5-1-8.1c-0.8-1.9-2.7-4.1-5.5-6.6l-11.4-9.6l11.4-9.4
			C301.3,182.1,303.1,180,303.9,178.2z"/>
		<path class="st1" d="M173.7,21.5c0.8,0,2.2-0.1,4.4-0.2c2.2-0.1,3.8-0.2,5-0.2c8.3,0,12.4,2.9,12.4,8.6v139.7c0,4,0.3,6.8,0.9,8.4
			c0.8,2,2.6,4.2,5.4,6.6l11.4,9.4l-11.4,9.6c-2.8,2.4-4.6,4.4-5.3,6.2c-0.7,1.8-1,4.6-1,8.5v146c0,6-4.2,9.1-12.7,9.1
			c-1.1,0-2.7-0.1-4.8-0.2c-2.1-0.1-3.5-0.2-4.3-0.2V384c9.9,3.8,20.3,6.9,30.9,9.1c9.8-3.1,14.7-11.2,14.7-24.4V215.9l20.5-20.1
			V192l-20.5-20V25.8c0-13.2-4.9-21.3-14.7-24.4c-10.6,2.2-21,5.3-30.9,9.1V21.5z"/>
	</g>
</g>
<g id="Capa_2">
</g>
</svg>
