<svg fill="none" height="32" viewBox="0 0 32 32" width="32" xmlns="http://www.w3.org/2000/svg"
  xmlns:xlink="http://www.w3.org/1999/xlink">
  <clipPath id="a">
    <path d="m0 0h32v32h-32z" />
  </clipPath>
  <g clip-path="url(#a)">
    <path
      d="m26.8901 19.3101c2.38.78 4.11 3.04 4.11 5.69 0 3.31-2.69 6-6 6s-6-2.69-6-6 2.69-6 6-6c.66 0 1.3.11 1.89.31z"
      fill="#f2b138" />
    <path
      d="m27 19-.11.31c-.59-.2-1.23-.31-1.89-.31-3.31 0-6 2.69-6 6s2.69 6 6 6h-23c-1 0-1-1-1-1v-28c0-1 1-1 1-1h15v9s0 1 1 1h9z"
      fill="#003f63" />
    <path d="m26 9c1 1 1 2 1 2h-9c-1 0-1-1-1-1v-9s1 0 2 1z" fill="#005288" />
    <path
      d="m27 16v-5s0-1-1-2l-7-7c-1-1-2-1-2-1m0 0h-15s-1 0-1 1v28s0 1 1 1h16m-1-30v9s0 1 1 1h5m4 14-2 2m0 0-2-2m2 2v-4m6 2c0-3.313-2.687-6-6-6s-6 2.687-6 6 2.687 6 6 6 6-2.687 6-6z"
      stroke="#000" stroke-linecap="round" stroke-linejoin="round" stroke-width="1.5" />
  </g>
</svg>
