<?xml version="1.0" encoding="utf-8"?>
<!-- Generator: Adobe Illustrator 25.4.1, SVG Export Plug-In . SVG Version: 6.00 Build 0)  -->
<svg version="1.1" xmlns="http://www.w3.org/2000/svg" xmlns:xlink="http://www.w3.org/1999/xlink" x="0px" y="0px"
	 viewBox="0 0 481.1 495.5" style="enable-background:new 0 0 481.1 495.5;" xml:space="preserve">
<style type="text/css">
	.st0{fill:#F2B138;}
	.st1{fill:#003F63;}
	.st2{fill:#FFFFFF;}
</style>
<g id="Capa_1">
	<path d="M35.6,450.9c0.5,0.3,1,0.7,1.5,1C36.6,451.6,36.1,451.3,35.6,450.9z"/>
	<path d="M39,453.3c0.6,0.4,1.2,0.8,1.8,1.3C40.2,454.1,39.6,453.7,39,453.3z"/>
	<path d="M42.3,455.6c0.7,0.5,1.3,1,2,1.5C43.6,456.6,43,456.1,42.3,455.6z"/>
	<path d="M45.5,458c0.7,0.6,1.5,1.1,2.2,1.7C46.9,459.1,46.2,458.6,45.5,458z"/>
	<g>
		<path class="st1" d="M239.8,450.9c0.5,0.3,1,0.7,1.5,1C240.8,451.6,240.3,451.3,239.8,450.9z"/>
		<path class="st1" d="M239.7,453.3c0.6,0.4,1.2,0.8,1.8,1.3C240.9,454.1,240.3,453.7,239.7,453.3z"/>
		<path class="st1" d="M239.6,455.6c0.7,0.5,1.3,1,2,1.5C240.9,456.6,240.2,456.1,239.6,455.6z"/>
		<path class="st1" d="M239.5,458c0.7,0.6,1.5,1.1,2.2,1.7C240.9,459.1,240.2,458.6,239.5,458z"/>
		<g>
			<path class="st1" d="M27.4,482.8h-8.4l-8.8-24.9v-4.8h7.9v-17H8v46.7H0v-53.6h21.3c3.2,0,4.8,1.6,4.8,4.9v19.5
				c0,2.3-0.8,3.7-2.3,4.4c-0.8,0.3-2.6,0.5-5.2,0.5L27.4,482.8z"/>
			<path class="st1" d="M39.9,443.3H32v-8.1h7.8V443.3z M39.8,482.8h-7.7v-34.6h7.7V482.8z"/>
			<path class="st1" d="M68,478.5c0,2.9-1.5,4.3-4.3,4.3H50.1c-2.9,0-4.4-1.4-4.4-4.3v-26c0-2.9,1.5-4.3,4.4-4.3h13.6
				c2.9,0,4.3,1.4,4.3,4.3v8.2h-7.6v-6h-7v21.5h7v-6.6H68V478.5z"/>
			<path class="st1" d="M95.9,482.8h-7.5v-1.2c-1.8,0.3-3.6,0.5-5.3,0.8c-2.3,0.3-4.1,0.5-5.3,0.5c-2.9,0-4.3-1.4-4.3-4.2v-12.5
				c0-2.9,1.5-4.3,4.4-4.3h10.6v-7.9H81v4.9h-7.1v-6.5c0-2.9,1.5-4.3,4.4-4.3h13.3c2.9,0,4.3,1.4,4.3,4.3V482.8z M88.5,476.6v-9.3
				H81v9.6L88.5,476.6z"/>
			<path class="st1" d="M123.3,462.7h-7.8v-7.9l-6.2,0.1v27.9h-7.8v-34.6h7.8v1.3c1.6-0.3,3.2-0.6,4.8-0.9c1.9-0.3,3.6-0.5,4.9-0.5
				c2.9,0,4.3,1.4,4.3,4.2V462.7z"/>
			<path class="st1" d="M150.7,482.8h-7.8v-1.2c-5.3,0.9-8.3,1.4-8.9,1.4c-2,0-3.5-0.6-4.6-1.7s-1.7-2.7-1.7-4.7v-21.4
				c0-2.8,1-4.8,3-5.9c1.5-0.8,3.7-1.2,6.6-1.2c0.7,0,1.6,0,2.9,0.1c1.3,0,2.1,0.1,2.7,0.1v-19h7.8V482.8z M142.9,476.1v-21.3h-4.8
				c-1.7,0-2.6,0.9-2.6,2.6v16.5c0,1.7,0.8,2.5,2.5,2.5C138.3,476.5,140,476.3,142.9,476.1z"/>
			<path class="st1" d="M179.2,478.5c0,2.9-1.5,4.3-4.3,4.3h-14c-2.9,0-4.4-1.4-4.4-4.3v-26c0-2.9,1.5-4.3,4.4-4.3h14
				c2.9,0,4.3,1.4,4.3,4.3V478.5z M171.5,476.3v-21.5h-7.4v21.5H171.5z"/>
			<path class="st1" d="M226.6,482.8h-8.1v-24h-10.9v24h-8v-53.6h8v22.1h10.9v-22.1h8.1V482.8z"/>
			<path class="st1" d="M255.6,482.8h-7.8v-1.2c-1.8,0.3-3.6,0.6-5.4,0.9c-2.2,0.3-4,0.5-5.5,0.5c-2.9,0-4.3-1.4-4.3-4.3v-30.5h7.8
				v28.1l7.4-0.2v-27.9h7.8V482.8z"/>
			<path class="st1" d="M284.4,482.8h-7.9v-28l-7.4,0.1v27.9h-7.8v-34.6h7.8v1.3c1.8-0.3,3.6-0.6,5.4-0.9c2.2-0.4,4.1-0.5,5.5-0.5
				c2.9,0,4.3,1.4,4.3,4.2V482.8z"/>
			<path class="st1" d="M312.9,491.2c0,2.9-1.5,4.3-4.4,4.3h-13.6c-2.9,0-4.4-1.4-4.4-4.3v-5.5h7.6v4.1h7.1v-7.2h-8
				c-2.2,0-3.9-0.6-5.2-1.8c-1.3-1.2-1.9-2.9-1.9-5.1v-21.2c0-2,0.6-3.5,1.7-4.7s2.7-1.7,4.6-1.7c1,0,3.9,0.5,8.9,1.4v-1.3h7.8
				V491.2z M305.1,476.3v-21.3c-2.6-0.3-4.3-0.4-4.9-0.4c-1.7,0-2.5,0.8-2.5,2.5v16.6c0,1.7,0.9,2.6,2.6,2.6H305.1z"/>
			<path class="st1" d="M354.5,482.8h-21.1v-53.6h8v46.4h13V482.8z"/>
			<path class="st1" d="M381.2,478.5c0,2.9-1.5,4.3-4.4,4.3h-13.5c-2.9,0-4.4-1.4-4.4-4.3v-26c0-2.9,1.5-4.3,4.4-4.3h13.5
				c2.9,0,4.4,1.4,4.4,4.3v12.7l-2.2,2.2h-12.7v9.7h7.4v-5.8h7.5V478.5z M373.7,462.3V454h-7.4v8.3H373.7z"/>
			<path class="st1" d="M425.1,482.8h-7.8v-28l-7.4,0.1v27.9h-7.8v-28l-7.4,0.1v27.9h-7.8v-34.6h7.8v1.3c1.8-0.3,3.6-0.6,5.4-0.9
				c2.2-0.3,4.1-0.5,5.5-0.5c1.8,0,3,0.5,3.5,1.5c1.9-0.3,3.8-0.6,5.8-0.9c2.5-0.4,4.5-0.6,5.8-0.6c2.9,0,4.3,1.4,4.3,4.2V482.8z"/>
			<path class="st1" d="M453.7,482.8h-7.8v-1.2c-1.8,0.3-3.6,0.6-5.4,0.9c-2.2,0.3-4,0.5-5.5,0.5c-2.9,0-4.3-1.4-4.3-4.3v-30.5h7.8
				v28.1l7.4-0.2v-27.9h7.8V482.8z"/>
			<path class="st1" d="M481.1,478.5c0,2.9-1.5,4.3-4.3,4.3h-13.2c-2.9,0-4.3-1.4-4.3-4.3v-7.4h7.5v5.8h6.9v-5.5l-12-7.1
				c-1.6-0.9-2.4-2.2-2.4-3.8v-8.1c0-2.9,1.5-4.3,4.4-4.3h13c2.9,0,4.3,1.4,4.3,4.3v7h-7.4v-5.3h-6.9v5l12,7
				c1.6,0.9,2.4,2.2,2.4,3.8V478.5z"/>
		</g>
		<g>
			<path class="st1" d="M410.7,258.2l-2.3,5.6c-3.9,9.5-8.5,18.5-13.9,27.1c-7,11-25.4,31.5-25.8,31.9l0.1-283
				c-7.7-6.1-15.9-11.6-24.5-16.4v347.7c40.4-23,72-59.8,88.5-103.9l2.9-9H410.7z"/>
			<path class="st1" d="M114.5,205.5c1.5,0,13.3,0.6,15.1,0.6c17.8,0,26.7-8.1,26.7-24.2V54.8c0-6.8-1.7-12.4-5.2-16.8c0,0,0,0,0,0
				c-3.5-4.4-7.5-5.1-10.7-5.2c-1.5,0-4.9,0-5.4,0c-2.7,0-4.8,1-5.5,1.5c-0.6,0.4-1.2,0.9-1.8,1.3c-49.9,36.4-82.3,95.2-82.3,161.7
				c0,20.6,3.1,40.4,8.9,59.1c1.1,3.7,7.1,19.9,7.1,19.9h26.1c0,0-8-20-9.3-23.9c-5.8-17.7-8.8-36.2-8.8-55.1
				c0-47,18.3-91.2,51.5-124.5c3.5-3.5,7.2-6.9,11-10.1v118H88.4l-3.3,6l50.3,177.5c9.5,6.3,19.6,11.8,30.1,16.4
				C165.4,380.6,129.9,257.5,114.5,205.5z"/>
			<path class="st1" d="M303.9,178.2c0.8-1.8,1.1-4.7,1.1-8.6V29.8c0-5.8,4-8.7,12.1-8.7c1.2,0,2.8,0.1,5,0.2
				c2.2,0.1,3.6,0.2,4.5,0.2v-7.1c-11-4.9-22.5-8.8-34.4-11.7c-7.5,3.8-11.3,11.5-11.3,23V172l-20.5,20v3.9l20.5,20.1v152.7
				c0,11.6,3.8,19.2,11.3,23c11.9-2.9,23.4-6.8,34.4-11.7v-7.1c-0.8,0-2.3,0.1-4.4,0.2c-2.1,0.1-3.7,0.2-4.8,0.2
				c-8.3,0-12.4-3-12.4-9.1v-146c0-3.7-0.3-6.5-1-8.1c-0.8-1.9-2.7-4.1-5.5-6.6l-11.4-9.6l11.4-9.4
				C301.3,182.1,303.1,180,303.9,178.2z"/>
			<path class="st1" d="M173.7,21.5c0.8,0,2.2-0.1,4.4-0.2c2.2-0.1,3.8-0.2,5-0.2c8.3,0,12.4,2.9,12.4,8.6v139.7
				c0,4,0.3,6.8,0.9,8.4c0.8,2,2.6,4.2,5.4,6.6l11.4,9.4l-11.4,9.6c-2.8,2.4-4.6,4.4-5.3,6.2c-0.7,1.8-1,4.6-1,8.5v146
				c0,6-4.2,9.1-12.7,9.1c-1.1,0-2.7-0.1-4.8-0.2c-2.1-0.1-3.5-0.2-4.3-0.2V384c9.9,3.8,20.3,6.9,30.9,9.1
				c9.8-3.1,14.7-11.2,14.7-24.4V215.9l20.5-20.1V192l-20.5-20V25.8c0-13.2-4.9-21.3-14.7-24.4c-10.6,2.2-21,5.3-30.9,9.1V21.5z"/>
		</g>
	</g>
</g>
<g id="Capa_2">
</g>
</svg>
